<svg width="20" height="20" viewBox="0 0 20 20" fill="none" xmlns="http://www.w3.org/2000/svg">
<g clip-path="url(#clip0_1074_5740)">
<path d="M0.9375 7.99996H19.0628V6.66663H0.9375V7.99996Z" fill="white"/>
<path d="M18.667 7.604V8.18934H20.0003V7.604H18.667Z" fill="white"/>
<path d="M16.5147 18.6666H3.48535V20H16.5147V18.6666Z" fill="white"/>
<path d="M1.33333 8.18934V7.604H0V8.18934H1.33333ZM3.86133 18.8987C2.1988 15.5735 1.33329 11.9069 1.33333 8.18934H0C0 12.1147 0.913333 15.9853 2.66933 19.496L3.86133 18.8987Z" fill="white"/>
<path d="M3.48495 18.6666C3.64495 18.6666 3.79028 18.7573 3.86095 18.8986L2.66895 19.496C2.74485 19.6474 2.86137 19.7747 3.00547 19.8637C3.14957 19.9527 3.31558 19.9999 3.48495 20V18.6666ZM16.1383 18.8986C16.1732 18.8288 16.2269 18.7702 16.2933 18.7292C16.3597 18.6882 16.4362 18.6665 16.5143 18.6666V20C16.8609 20 17.1756 19.8053 17.3303 19.496L16.1383 18.8986Z" fill="white"/>
<path d="M18.6667 8.18933C18.6667 11.9067 17.8 15.5733 16.1387 18.8987L17.3307 19.496C19.0861 15.9854 20 12.1143 20 8.18933H18.6667Z" fill="white"/>
<path d="M19.063 7.99996C18.958 7.99996 18.8572 7.95824 18.783 7.88397C18.7087 7.80971 18.667 7.70899 18.667 7.60396H20.0003C20.0003 7.35536 19.9016 7.11695 19.7258 6.94116C19.55 6.76538 19.3116 6.66663 19.063 6.66663V7.99996Z" fill="white"/>
<path d="M0.937333 6.66664C0.688737 6.66664 0.450323 6.7654 0.274539 6.94118C0.0987545 7.11696 0 7.35538 0 7.60397H1.33333C1.33333 7.709 1.29161 7.80972 1.21735 7.88399C1.14308 7.95825 1.04236 7.99997 0.937333 7.99997V6.66664ZM5.23867 7.67597L9.23867 1.00931L8.09333 0.323975L4.09333 6.99064L5.23733 7.67597H5.23867ZM10.7613 1.00931L14.7613 7.67597L15.9053 6.99064L11.9053 0.323975L10.7613 1.00931Z" fill="white"/>
</g>
<defs>
<clipPath id="clip0_1074_5740">
<rect width="20" height="20" fill="white"/>
</clipPath>
</defs>
</svg>
