<svg width="181" height="50" viewBox="0 0 181 50" fill="none" xmlns="http://www.w3.org/2000/svg">
<g clip-path="url(#clip0_1074_5716)">
<path fill-rule="evenodd" clip-rule="evenodd" d="M75.0049 20.8764C75.0049 20.8764 79.5477 24.5211 82.6563 37.225C83.6948 41.5123 83.1218 46.0303 81.0457 49.9252C81.0457 49.9252 85.6711 47.8933 88.1227 43.5414C96.0294 29.4979 89.065 19.3123 89.065 19.3123L75.0049 20.8764Z" fill="#E60013"/>
<path fill-rule="evenodd" clip-rule="evenodd" d="M106.846 23.6716L109.158 40.0502L112.762 23.6716H121.398L124.653 49.9963C124.653 49.9963 118.492 49.9102 117.895 47.0027C117.223 43.7472 116.055 31.4324 116.055 31.4324L112.271 47.0401C112.271 47.0401 109.301 50.0112 108.55 50.0112C107.799 50.0112 105.171 47.2871 105.171 47.2871L102.543 31.3838C102.543 31.3838 99.6409 45.6631 99.1641 47.6164C98.5672 50.1684 92.4062 50.0112 92.4062 50.0112L98.2105 23.6716H106.846Z" fill="#E60013"/>
<path fill-rule="evenodd" clip-rule="evenodd" d="M156.242 22.8259L170.19 38.9163L162.925 22.8259H169.919L180.556 49.8092C180.556 49.8092 173.877 50.1085 171.11 48.6604C169.723 47.8805 168.489 46.8575 167.468 45.6406L153.952 29.3781C153.952 29.3781 159.895 42.2093 160.545 44.9933C161.378 48.5818 154.669 49.8054 154.669 49.8054L144.656 22.8259H156.235H156.242Z" fill="#E60013"/>
<path fill-rule="evenodd" clip-rule="evenodd" d="M8.2296 22.8259L0 49.8316H16.8346C16.8346 49.8316 20.6528 49.9588 21.7153 49.2179C22.6239 48.5781 23.3823 45.693 23.3823 45.693L25.5973 38.819L21.9256 35.9078C21.9256 35.9078 25.2745 35.7319 26.7086 33.2435C27.1784 32.3268 27.597 31.3849 27.9626 30.4221L30.7596 22.8259H8.2296ZM20.3112 32.4465C19.4514 33.1949 19.2074 33.0078 17.4841 33.019C15.5769 33.019 14.4243 33.3745 13.1478 34.7366C12.0591 35.8966 10.8614 39.0174 10.8614 39.0174L19.121 38.8976C19.121 38.8976 18.3251 41.6068 17.0299 45.0494C16.752 45.7978 14.6871 45.6855 12.427 45.6893C9.59619 45.6893 7.17086 45.6893 7.17086 45.6893L13.1553 26.6727H22.9167C22.9167 26.6727 21.4412 31.4811 20.3112 32.4465Z" fill="#E60013"/>
<path fill-rule="evenodd" clip-rule="evenodd" d="M68.0815 22.8259H59.9157L50.6387 49.8316C50.6387 49.8316 57.1976 50.6698 58.4928 47.5004C59.5628 44.881 63.9479 27.8589 63.9479 27.8589C63.9479 27.8589 69.3054 45.0195 70.3492 47.7399C71.528 50.8045 77.933 49.8316 77.933 49.8316L68.0815 22.8259Z" fill="#E60013"/>
<path fill-rule="evenodd" clip-rule="evenodd" d="M139.175 23.0841H128.734L125.934 49.8054C125.934 49.8054 130.33 49.304 131.565 48.2787C131.956 47.9818 132.282 47.6074 132.521 47.1792C132.76 46.751 132.907 46.2781 132.954 45.7903L134.411 28.0721C134.411 28.0721 143.898 47.8633 144.751 48.4845C146.939 50.0861 152.402 49.8054 152.402 49.8054L139.175 23.0841Z" fill="#E60013"/>
<path fill-rule="evenodd" clip-rule="evenodd" d="M34.9566 22.8259L27.0011 45.7042C26.723 46.4416 26.6302 47.2355 26.7308 48.0168C27.125 49.9476 30.7442 49.8316 30.7442 49.8316H39.6646C39.6646 49.8316 44.9207 49.899 46.3099 48.9672C47.1809 48.3835 47.9055 45.9999 47.9055 45.9999L55.7183 22.8259H34.9566ZM43.7419 43.5489C43.2425 45.0457 41.294 46.2468 39.3905 46.258L35.3396 46.2842C33.4361 46.2842 32.2948 45.1018 32.7941 43.6162L37.6748 29.1087C38.1741 27.6119 40.1189 26.4107 42.0261 26.3995L46.0771 26.3733C47.9806 26.3733 49.1181 27.5558 48.6188 29.0413L43.7419 43.5489Z" fill="#E60013"/>
<path fill-rule="evenodd" clip-rule="evenodd" d="M49.0547 21.3478C49.0547 21.3478 58.2041 12.3672 77.2538 12.5879C105.81 12.9285 108.355 0 108.355 0C108.355 0 110.901 25.7671 82.0444 22.8259C68.6075 21.4601 66.3924 18.0736 49.0547 21.3478Z" fill="#E60013"/>
<path fill-rule="evenodd" clip-rule="evenodd" d="M64.286 36.4017L65.7727 40.1362L67.2594 43.8669H64.286H61.3125L62.7992 40.1362L64.286 36.4017Z" fill="#E60013"/>
<path fill-rule="evenodd" clip-rule="evenodd" d="M136.393 36.8358L140.617 44.301H137.643H134.67L136.393 36.8358Z" fill="#E60013"/>
</g>
<defs>
<clipPath id="clip0_1074_5716">
<rect width="180.556" height="50" fill="white"/>
</clipPath>
</defs>
</svg>
