<svg width="35" height="35" viewBox="0 0 35 35" fill="none" xmlns="http://www.w3.org/2000/svg">
<path d="M25.667 24.5H29.167V21" stroke="#F9F9F9"/>
<path d="M25.667 10.5H29.167V14" stroke="#F9F9F9"/>
<path d="M9.33366 10.5H5.83366V14M5.83366 21V24.5H9.33366M17.5003 22.1666C16.2626 22.1666 15.0757 21.675 14.2005 20.7998C13.3253 19.9246 12.8337 18.7377 12.8337 17.5C12.8337 16.2623 13.3253 15.0753 14.2005 14.2001C15.0757 13.325 16.2626 12.8333 17.5003 12.8333C18.738 12.8333 19.925 13.325 20.8002 14.2001C21.6753 15.0753 22.167 16.2623 22.167 17.5C22.167 18.7377 21.6753 19.9246 20.8002 20.7998C19.925 21.675 18.738 22.1666 17.5003 22.1666ZM3.50033 5.83331H31.5003C32.1192 5.83331 32.7127 6.07915 33.1502 6.51673C33.5878 6.95432 33.8337 7.54781 33.8337 8.16665V26.8333C33.8337 27.4522 33.5878 28.0456 33.1502 28.4832C32.7127 28.9208 32.1192 29.1666 31.5003 29.1666H3.50033C2.88149 29.1666 2.28799 28.9208 1.85041 28.4832C1.41282 28.0456 1.16699 27.4522 1.16699 26.8333V8.16665C1.16699 7.54781 1.41282 6.95432 1.85041 6.51673C2.28799 6.07915 2.88149 5.83331 3.50033 5.83331Z" stroke="#F9F9F9"/>
</svg>
