<svg width="30" height="30" viewBox="0 0 30 30" fill="none" xmlns="http://www.w3.org/2000/svg">
<path d="M25 25C26.0609 25 27.0783 24.5786 27.8284 23.8284C28.5786 23.0783 29 22.0609 29 21V17C29 15.9391 28.5786 14.9217 27.8284 14.1716C27.0783 13.4214 26.0609 13 25 13C24.4696 13 23.9609 13.2107 23.5858 13.5858C23.2107 13.9609 23 14.4696 23 15V23C23 23.5304 23.2107 24.0391 23.5858 24.4142C23.9609 24.7893 24.4696 25 25 25ZM25 25C25 26.0609 24.5786 27.0783 23.8284 27.8284C23.0783 28.5786 22.0609 29 21 29H16M29 20V15C29 13.1615 28.6379 11.341 27.9343 9.64243C27.2307 7.94387 26.1995 6.40053 24.8995 5.1005C23.5995 3.80048 22.0561 2.76925 20.3576 2.06569C18.659 1.36212 16.8385 1 15 1C13.1615 1 11.341 1.36212 9.64243 2.06569C7.94387 2.76925 6.40053 3.80048 5.1005 5.1005C3.80048 6.40053 2.76925 7.94387 2.06569 9.64243C1.36212 11.341 1 13.1615 1 15V20M5 25C5.53043 25 6.03914 24.7893 6.41421 24.4142C6.78929 24.0391 7 23.5304 7 23V15C7 14.4696 6.78929 13.9609 6.41421 13.5858C6.03914 13.2107 5.53043 13 5 13C3.93913 13 2.92172 13.4214 2.17157 14.1716C1.42143 14.9217 1 15.9391 1 17V21C1 22.0609 1.42143 23.0783 2.17157 23.8284C2.92172 24.5786 3.93913 25 5 25Z" stroke="#F9F9F9"/>
</svg>
